<svg width="28" height="28" viewBox="0 0 28 28" fill="none" xmlns="http://www.w3.org/2000/svg">
<path d="M15.7734 27.9351C18.3383 27.5851 20.6133 26.639 22.6367 25.0749C23.2766 24.5773 24.3648 23.5054 24.8953 22.8491C26.4047 20.9788 27.4055 18.7695 27.832 16.3632C27.9852 15.5101 28.0453 13.4593 27.9469 12.5241C27.7117 10.3421 26.9516 8.20383 25.7703 6.38821C25.2344 5.5679 24.7641 4.98274 24.0312 4.23352C21.7398 1.88196 18.8469 0.460084 15.5547 0.077272C14.8219 -0.0102279 13.0391 0.00617847 12.2461 0.0991473C8.15546 0.607741 4.50234 2.89915 2.22187 6.38821C1.04062 8.19837 0.280465 10.3421 0.0507766 12.5241C-0.0476597 13.4265 0.00702802 15.4499 0.154684 16.2921C0.685152 19.3874 2.06875 21.996 4.32734 24.1616C6.37265 26.1304 8.97031 27.4156 11.8359 27.8859C12.5906 28.0062 15.0187 28.039 15.7734 27.9351ZM12.1914 26.4585C8.61484 25.9171 5.4539 23.8937 3.48515 20.8804C2.48437 19.3601 1.83359 17.632 1.54375 15.7671C1.4125 14.8976 1.4125 13.1312 1.54921 12.2671C1.98125 9.47259 3.16796 7.12102 5.13671 5.15774C7.10546 3.18352 9.45156 2.00227 12.2516 1.56477C13.1102 1.43352 14.8766 1.43352 15.7461 1.56477C18.5352 1.9968 20.8867 3.17805 22.8609 5.15227C24.8352 7.12649 26.0164 9.47805 26.4484 12.2671C26.5797 13.1366 26.5797 14.9031 26.443 15.7671C25.9453 18.9937 24.3703 21.7609 21.8711 23.8062C20.832 24.6593 19.3227 25.4796 17.9609 25.9281C16.9164 26.2781 16.1672 26.4312 14.8984 26.5624C14.4609 26.6062 12.7492 26.5406 12.1914 26.4585Z" fill="#8D88A1"/>
<path d="M16.3805 19.5952C16.55 19.5296 16.7743 19.2343 16.8125 19.0265C16.8891 18.6437 16.8235 18.5781 14.1766 16.2648C12.7985 15.0562 11.6719 14.0445 11.6719 14.0171C11.6719 13.9898 12.7985 12.9781 14.1766 11.7695C16.0579 10.1288 16.7032 9.52728 16.7688 9.38509C16.9875 8.85462 16.4899 8.28587 15.9157 8.41165C15.7954 8.439 14.8657 9.21556 12.886 10.9492C11.3164 12.3218 9.97113 13.5195 9.90551 13.6015C9.74144 13.8148 9.74144 14.2195 9.90551 14.4273C10.0969 14.6679 15.6805 19.5406 15.8336 19.5952C15.9977 19.6609 16.2219 19.6609 16.3805 19.5952Z" fill="#8D88A1"/>
</svg>
