<svg width="28" height="28" viewBox="0 0 28 28" fill="none" xmlns="http://www.w3.org/2000/svg">
<g clip-path="url(#clip0_204_265)">
<path d="M12.2227 0.0820034C9.65782 0.432003 7.38282 1.3781 5.35938 2.94216C4.71954 3.43982 3.63126 4.51169 3.10079 5.16794C1.59141 7.03825 0.59063 9.24763 0.164068 11.6539C0.0109429 12.507 -0.0492133 14.5578 0.0492242 15.4929C0.28438 17.675 1.04454 19.8133 2.22579 21.6289C2.76172 22.4492 3.23204 23.0343 3.96485 23.7836C6.25626 26.1351 9.14922 27.557 12.4414 27.9398C13.1742 28.0273 14.957 28.0109 15.75 27.9179C19.8406 27.4094 23.4938 25.1179 25.7742 21.6289C26.9555 19.8187 27.7156 17.675 27.9453 15.4929C28.0438 14.5906 27.9891 12.5672 27.8414 11.725C27.3109 8.62966 25.9273 6.02107 23.6688 3.85544C21.6234 1.88669 19.0258 0.601535 16.1602 0.131222C15.4055 0.0109097 12.9773 -0.0219028 12.2227 0.0820034ZM15.8047 1.55857C19.3813 2.09997 22.5422 4.12341 24.5109 7.13669C25.5117 8.65701 26.1625 10.3851 26.4523 12.25C26.5836 13.1195 26.5836 14.8859 26.4469 15.75C26.0148 18.5445 24.8281 20.8961 22.8594 22.8593C20.8906 24.8336 18.5445 26.0148 15.7445 26.4523C14.8859 26.5836 13.1195 26.5836 12.25 26.4523C9.46094 26.0203 7.10938 24.839 5.13516 22.8648C3.16094 20.8906 1.97969 18.539 1.54766 15.75C1.41641 14.8804 1.41641 13.114 1.55313 12.25C2.05079 9.02341 3.62579 6.25622 6.12501 4.21091C7.16407 3.35778 8.67344 2.53747 10.0352 2.08903C11.0797 1.73903 11.8289 1.58591 13.0977 1.45466C13.5352 1.41091 15.2469 1.47653 15.8047 1.55857Z" fill="#8D88A1"/>
<path d="M11.6156 8.42178C11.4461 8.48741 11.2218 8.78272 11.1836 8.99053C11.107 9.37334 11.1726 9.43897 13.8195 11.7522C15.1976 12.9608 16.3242 13.9726 16.3242 13.9999C16.3242 14.0272 15.1976 15.039 13.8195 16.2476C11.9382 17.8882 11.2929 18.4898 11.2273 18.6319C11.0086 19.1624 11.5062 19.7312 12.0804 19.6054C12.2007 19.578 13.1304 18.8015 15.1101 17.0679C16.6796 15.6952 18.025 14.4976 18.0906 14.4155C18.2546 14.2022 18.2546 13.7976 18.0906 13.5897C17.8992 13.3491 12.3156 8.47647 12.1625 8.42178C11.9984 8.35616 11.7742 8.35616 11.6156 8.42178Z" fill="#8D88A1"/>
</g>
<defs>
<clipPath id="clip0_204_265">
<rect width="28" height="28" fill="white"/>
</clipPath>
</defs>
</svg>
