<svg width="28" height="28" viewBox="0 0 28 28" fill="none" xmlns="http://www.w3.org/2000/svg">
<g clip-path="url(#clip0_204_269)">
<path d="M15.7773 0.0820034C18.3422 0.432003 20.6172 1.3781 22.6406 2.94216C23.2805 3.43982 24.3687 4.51169 24.8992 5.16794C26.4086 7.03825 27.4094 9.24763 27.8359 11.6539C27.9891 12.507 28.0492 14.5578 27.9508 15.4929C27.7156 17.675 26.9555 19.8133 25.7742 21.6289C25.2383 22.4492 24.768 23.0343 24.0352 23.7836C21.7437 26.1351 18.8508 27.557 15.5586 27.9398C14.8258 28.0273 13.043 28.0109 12.25 27.9179C8.15937 27.4094 4.50624 25.1179 2.22578 21.6289C1.04453 19.8187 0.28437 17.675 0.0546823 15.4929C-0.0437552 14.5906 0.0109323 12.5672 0.158589 11.725C0.689057 8.62966 2.07265 6.02107 4.33124 3.85544C6.37656 1.88669 8.97421 0.601535 11.8398 0.131222C12.5945 0.0109097 15.0227 -0.0219028 15.7773 0.0820034ZM12.1953 1.55857C8.61874 2.09997 5.45781 4.12341 3.48906 7.13669C2.48828 8.65701 1.83749 10.3851 1.54765 12.25C1.4164 13.1195 1.4164 14.8859 1.55312 15.75C1.98515 18.5445 3.17187 20.8961 5.14062 22.8593C7.10937 24.8336 9.45546 26.0148 12.2555 26.4523C13.1141 26.5836 14.8805 26.5836 15.75 26.4523C18.5391 26.0203 20.8906 24.839 22.8648 22.8648C24.8391 20.8906 26.0203 18.539 26.4523 15.75C26.5836 14.8804 26.5836 13.114 26.4469 12.25C25.9492 9.02341 24.3742 6.25622 21.875 4.21091C20.8359 3.35778 19.3266 2.53747 17.9648 2.08903C16.9203 1.73903 16.1711 1.58591 14.9023 1.45466C14.4648 1.41091 12.7531 1.47653 12.1953 1.55857Z" fill="#DADADA"/>
<path d="M16.3844 8.42178C16.5539 8.48741 16.7782 8.78272 16.8164 8.99053C16.893 9.37334 16.8274 9.43897 14.1805 11.7522C12.8024 12.9608 11.6758 13.9726 11.6758 13.9999C11.6758 14.0272 12.8024 15.039 14.1805 16.2476C16.0618 17.8882 16.7071 18.4898 16.7727 18.6319C16.9914 19.1624 16.4938 19.7312 15.9196 19.6054C15.7993 19.578 14.8696 18.8015 12.8899 17.0679C11.3204 15.6952 9.97504 14.4976 9.90941 14.4155C9.74535 14.2022 9.74535 13.7976 9.90941 13.5897C10.1008 13.3491 15.6844 8.47647 15.8375 8.42178C16.0016 8.35616 16.2258 8.35616 16.3844 8.42178Z" fill="#DADADA"/>
</g>
<defs>
<clipPath id="clip0_204_269">
<rect width="28" height="28" fill="white" transform="matrix(-1 0 0 1 28 0)"/>
</clipPath>
</defs>
</svg>
