<svg width="17" height="18" viewBox="0 0 17 18" fill="none" xmlns="http://www.w3.org/2000/svg">
<path d="M5.43523 2.63503C5.2659 2.69148 5.09324 2.83425 5.01355 2.99031C4.93054 3.153 4.9239 3.47839 5.00027 3.63113C5.03015 3.69089 5.43523 4.12253 5.9034 4.5907L6.75672 5.44734H4.00086C1.38777 5.44734 1.23836 5.45066 1.11219 5.51043C0.614138 5.73953 0.554373 6.45339 1.00261 6.76218L1.13875 6.85847L3.94773 6.86843L6.7534 6.87507L5.9034 7.73171C5.34558 8.28953 5.03347 8.6282 4.99695 8.70789C4.92722 8.88054 4.93386 9.17273 5.01023 9.32546C5.19285 9.67742 5.61453 9.83015 5.95984 9.66746C6.04949 9.62429 6.59402 9.103 7.62332 8.06707C9.03445 6.64597 9.1573 6.51316 9.19715 6.37039C9.24695 6.18445 9.22371 5.99187 9.13074 5.81921C9.05105 5.66316 6.1325 2.75125 5.98308 2.67488C5.83699 2.60183 5.59129 2.58523 5.43523 2.63503Z" fill="#8D88A1"/>
<path d="M11.1892 8.30277C11.1261 8.31273 11.0365 8.34262 10.99 8.36586C10.9435 8.3891 10.223 9.08969 9.38629 9.92641C8.02828 11.2811 7.86226 11.4571 7.81578 11.6032C7.75269 11.7924 7.76929 11.995 7.86558 12.1809C7.96187 12.3635 10.8771 15.2588 11.0298 15.3252C11.1959 15.3916 11.4748 15.3883 11.6408 15.312C11.8732 15.2057 12.0525 14.9235 12.0525 14.6579C12.0525 14.3789 12.0193 14.3358 11.1128 13.4227L10.2462 12.5528H12.9921C15.997 12.5528 15.8675 12.5594 16.0834 12.3602C16.4021 12.058 16.3589 11.487 15.997 11.2379L15.8609 11.1416L13.0519 11.1317L10.2462 11.125L11.1095 10.2518C11.8267 9.53129 11.9794 9.35863 12.0127 9.24574C12.0923 8.97016 12.0425 8.73109 11.8666 8.5352C11.6873 8.3393 11.4449 8.25629 11.1892 8.30277Z" fill="#8D88A1"/>
</svg>
