<svg width="18" height="18" viewBox="0 0 18 18" fill="none" xmlns="http://www.w3.org/2000/svg">
<path d="M7.93108 1.18134C6.82366 1.32899 5.61077 1.77899 4.69319 2.38016C3.076 3.44188 1.89475 5.05907 1.38499 6.92235C1.051 8.14579 1.02639 9.57665 1.32171 10.8282C1.51155 11.6403 1.93694 12.6352 2.37991 13.3067C3.63147 15.2016 5.59671 16.4567 7.87483 16.8118C8.33186 16.8821 9.80139 16.8716 10.2479 16.7942C11.053 16.6536 11.7666 16.4251 12.4627 16.0841C13.7459 15.4583 14.8428 14.4915 15.6198 13.3067C15.8905 12.8919 16.3123 12.027 16.467 11.5665C16.7553 10.7122 16.8783 9.93524 16.8783 8.98954C16.8783 7.66415 16.6182 6.57782 16.0276 5.41415C14.8533 3.10438 12.6069 1.51532 10.0405 1.17782C9.53421 1.11102 8.41975 1.11454 7.93108 1.18134ZM9.80843 2.32391C10.2655 2.37313 10.9826 2.54891 11.4256 2.7247C13.7143 3.62821 15.3104 5.63915 15.6619 8.05438C15.7323 8.54657 15.7323 9.46063 15.6584 9.94227C15.5459 10.7016 15.2928 11.4856 14.9553 12.1255C14.7866 12.4419 14.4491 12.9727 14.4139 12.9727C14.4033 12.9727 14.3541 12.8567 14.3119 12.7196C14.2662 12.579 14.1362 12.2837 14.0237 12.0587C13.2116 10.4766 11.7104 9.36923 9.9596 9.0704C9.09475 8.92274 8.07522 8.99657 7.2385 9.26727C5.83929 9.71727 4.65452 10.7333 3.976 12.0587C3.8635 12.2837 3.73343 12.579 3.68772 12.7196C3.64554 12.8567 3.59632 12.9727 3.58577 12.9727C3.55061 12.9727 3.21311 12.4419 3.04436 12.1255C2.71038 11.4962 2.44671 10.6841 2.33772 9.94579C2.26741 9.46063 2.26741 8.53954 2.33772 8.05438C2.72444 5.41766 4.61936 3.24852 7.16819 2.52782C8.04007 2.28524 8.83108 2.22196 9.80843 2.32391ZM9.82952 10.213C10.4166 10.3255 11.0494 10.5927 11.5662 10.9477C11.9283 11.1938 12.4592 11.7317 12.7018 12.0974C13.0639 12.6423 13.3487 13.3524 13.4119 13.8622L13.4366 14.0556L13.2151 14.2419C12.6842 14.6813 11.8651 15.1349 11.1479 15.3809C10.1248 15.729 8.79593 15.8204 7.72014 15.6095C6.67952 15.4056 5.55452 14.8817 4.7846 14.2419L4.56311 14.0556L4.58772 13.8622C4.651 13.3524 4.93577 12.6423 5.29788 12.0974C5.54046 11.7317 6.07132 11.1938 6.43343 10.9442C7.07327 10.5083 7.76585 10.2516 8.57796 10.1462C8.80647 10.1181 9.54124 10.1567 9.82952 10.213Z" fill="#BEBEBE"/>
<path d="M8.29712 2.88291C7.30572 3.13955 6.51119 3.9376 6.25806 4.93604C6.16314 5.31924 6.15963 5.93096 6.25806 6.31416C6.51119 7.31611 7.30923 8.11416 8.31119 8.36729C8.69439 8.46221 9.30611 8.46221 9.68931 8.36729C10.6877 8.11416 11.4928 7.30908 11.7424 6.31416C11.8409 5.93096 11.8374 5.31572 11.7424 4.93604C11.4858 3.92354 10.7018 3.13955 9.68931 2.88291C9.31314 2.78799 8.66978 2.78799 8.29712 2.88291ZM9.45728 4.03252C9.73502 4.10986 9.90025 4.20479 10.1112 4.40166C10.4803 4.74971 10.6526 5.13994 10.6526 5.62158C10.6526 6.54971 9.92486 7.27744 9.00025 7.27744C8.51509 7.27744 8.12486 7.10518 7.77681 6.73604C7.48502 6.42666 7.34791 6.0751 7.34791 5.6251C7.34791 5.16104 7.48502 4.82002 7.80142 4.48955C8.25142 4.01494 8.82447 3.85674 9.45728 4.03252Z" fill="#BEBEBE"/>
</svg>
