<svg width="11" height="10" viewBox="0 0 11 10" fill="none" xmlns="http://www.w3.org/2000/svg">
<g id="free-icon-check-mark-8001506 1 (traced)" clip-path="url(#clip0_68_286)">
<g id="Black">
<path id="Vector" d="M9.13659 1.40234C9.07604 1.42383 8.99791 1.45898 8.9608 1.48438C8.92565 1.50977 7.72252 2.70117 6.28893 4.13281C4.85338 5.56641 3.65807 6.74609 3.62877 6.75586C3.59166 6.76953 3.55651 6.76953 3.52135 6.75586C3.4901 6.74609 2.97057 6.24219 2.36315 5.63672C1.08971 4.36719 1.16198 4.42383 0.829945 4.42383C0.660023 4.42383 0.620961 4.42969 0.523305 4.47656C0.369008 4.54883 0.245961 4.66797 0.169789 4.82227C0.111195 4.94141 0.107289 4.96289 0.107289 5.15625C0.107289 5.50586 0.00182033 5.37695 1.66784 7.04492C3.04088 8.41992 3.12291 8.49805 3.25182 8.55859C3.37682 8.61719 3.40416 8.62305 3.57409 8.62305C3.74401 8.62305 3.77135 8.61719 3.89635 8.55859C4.02721 8.49609 4.14635 8.38086 7.00377 5.52148C10.3827 2.14258 10.0878 2.4668 10.0878 2.10938C10.0878 1.91602 10.0839 1.89453 10.0253 1.77539C9.94909 1.62109 9.82604 1.5 9.6737 1.43164C9.52721 1.36328 9.29284 1.35156 9.13659 1.40234Z" fill="white"/>
</g>
</g>
<defs>
<clipPath id="clip0_68_286">
<rect width="10.1953" height="10" fill="white"/>
</clipPath>
</defs>
</svg>
