<svg width="14" height="14" viewBox="0 0 14 14" fill="none" xmlns="http://www.w3.org/2000/svg">
<g clip-path="url(#clip0_56_916)">
<path d="M11.8775 2.32305C11.7988 2.35098 11.6972 2.39668 11.649 2.42969C11.6033 2.4627 10.0392 4.01152 8.17556 5.87266C6.30935 7.73633 4.75544 9.26992 4.71736 9.28262C4.66911 9.30039 4.62341 9.30039 4.57771 9.28262C4.53708 9.26992 3.86169 8.61484 3.07204 7.82773C1.41658 6.17734 1.51052 6.25098 1.07888 6.25098C0.857982 6.25098 0.8072 6.25859 0.680247 6.31953C0.479661 6.41348 0.3197 6.56836 0.220677 6.76895C0.144505 6.92383 0.139427 6.95176 0.139427 7.20313C0.139427 7.65762 0.0023176 7.49004 2.16814 9.6584C3.9531 11.4459 4.05974 11.5475 4.22732 11.6262C4.38982 11.7023 4.42536 11.71 4.64626 11.71C4.86716 11.71 4.90271 11.7023 5.06521 11.6262C5.23533 11.5449 5.39021 11.3951 9.10486 7.67793C13.4974 3.28535 13.114 3.70684 13.114 3.24219C13.114 2.99082 13.109 2.96289 13.0328 2.80801C12.9338 2.60742 12.7738 2.45 12.5758 2.36113C12.3853 2.27227 12.0806 2.25703 11.8775 2.32305Z" fill="#5941B6"/>
</g>
<defs>
<clipPath id="clip0_56_916">
<rect width="13.2539" height="13" fill="white" transform="translate(0 0.5)"/>
</clipPath>
</defs>
</svg>
