<svg width="10" height="10" viewBox="0 0 10 10" fill="none" xmlns="http://www.w3.org/2000/svg">
<g id="close 3" clip-path="url(#clip0_51_750)">
<path id="Vector" d="M5.91616 5.00922L9.80996 1.1153C10.0634 0.862017 10.0634 0.452493 9.80996 0.199209C9.55667 -0.054074 9.14715 -0.054074 8.89387 0.199209L4.99995 4.09313L1.10614 0.199209C0.852741 -0.054074 0.443335 -0.054074 0.190052 0.199209C-0.0633505 0.452493 -0.0633505 0.862017 0.190052 1.1153L4.08385 5.00922L0.190052 8.90314C-0.0633505 9.15643 -0.0633505 9.56595 0.190052 9.81923C0.316278 9.94558 0.482247 10.009 0.648097 10.009C0.813947 10.009 0.979798 9.94558 1.10614 9.81923L4.99995 5.92531L8.89387 9.81923C9.02021 9.94558 9.18606 10.009 9.35191 10.009C9.51776 10.009 9.68361 9.94558 9.80996 9.81923C10.0634 9.56595 10.0634 9.15643 9.80996 8.90314L5.91616 5.00922Z" fill="#5941B6"/>
</g>
<defs>
<clipPath id="clip0_51_750">
<rect width="10" height="10" fill="white"/>
</clipPath>
</defs>
</svg>
