<svg width="9" height="9" viewBox="0 0 9 9" fill="none" xmlns="http://www.w3.org/2000/svg">
<g id="close 4" clip-path="url(#clip0_51_752)">
<path id="Vector" d="M5.18712 4.50694L8.10747 1.5865C8.29752 1.39654 8.29752 1.08939 8.10747 0.89943C7.91751 0.709467 7.61036 0.709467 7.4204 0.89943L4.49996 3.81987L1.57961 0.89943C1.38956 0.709467 1.0825 0.709467 0.892539 0.89943C0.702487 1.08939 0.702487 1.39654 0.892539 1.5865L3.81289 4.50694L0.892539 7.42738C0.702487 7.61734 0.702487 7.92449 0.892539 8.11445C0.987209 8.20921 1.11169 8.25681 1.23607 8.25681C1.36046 8.25681 1.48485 8.20921 1.57961 8.11445L4.49996 5.19401L7.4204 8.11445C7.51516 8.20921 7.63955 8.25681 7.76393 8.25681C7.88832 8.25681 8.01271 8.20921 8.10747 8.11445C8.29752 7.92449 8.29752 7.61734 8.10747 7.42738L5.18712 4.50694Z" fill="#8D88A1"/>
</g>
<defs>
<clipPath id="clip0_51_752">
<rect width="7.5" height="7.5" fill="white" transform="translate(0.75 0.75)"/>
</clipPath>
</defs>
</svg>
