<svg width="31" height="31" viewBox="0 0 31 31" fill="none" xmlns="http://www.w3.org/2000/svg">
<g clip-path="url(#clip0_43_473)">
<path d="M13.5322 6.79363C11.4979 6.86576 10.8137 7.07014 10.3354 7.74938C10.1779 7.97179 10.2082 8.03791 10.523 8.10403C11.1648 8.24229 11.6189 8.55486 11.8187 8.98765C12.2002 9.85324 12.3031 11.9391 12.0549 13.8205C11.9277 14.7522 11.6855 15.2572 11.3223 15.3353C10.8439 15.4375 10.0387 14.7823 9.35449 13.7364C8.80957 12.9068 7.28379 9.97947 6.78125 8.80131C6.46641 8.06196 6.3332 7.88162 5.95781 7.68927L5.66113 7.539L3.23926 7.55703C1.90723 7.56304 0.714453 7.58708 0.587305 7.60512C0.460156 7.62315 0.278516 7.7073 0.181641 7.79146C0.0242187 7.91769 0 7.98381 0 8.2483C0 8.50076 0.0847656 8.73519 0.49043 9.63684C2.02227 13.015 3.7418 16.0025 5.5582 18.443C7.00527 20.3906 7.87109 21.2982 9.08809 22.1518C10.8076 23.36 12.1033 23.9371 13.6533 24.1895C14.392 24.3098 17.1227 24.3098 17.4557 24.1955C17.9824 24.0032 18.1096 23.7567 18.1701 22.7469C18.2428 21.5447 18.5152 20.8354 19.0602 20.4146C19.593 20.0059 20.1197 20.3305 21.5668 21.9474C22.5234 23.0174 23.0078 23.4862 23.4861 23.7868C23.8555 24.0212 24.3822 24.2376 24.7395 24.3098C25.018 24.3578 26.683 24.3518 28.7719 24.2857L30.2674 24.2376L30.558 24.0633C30.891 23.8589 31 23.6846 31 23.342C31 22.4524 30.2129 21.3764 27.8213 19.0201C26.0533 17.2769 25.9322 17.1146 25.9928 16.5676C26.0473 16.1468 26.241 15.8522 27.8213 13.7604C29.8678 11.0554 30.5459 10.0035 30.885 9.01771C31.0424 8.56688 31.0363 8.04993 30.8789 7.88162C30.5762 7.56304 30.5338 7.55703 27.3672 7.56905C25.6598 7.56905 24.3398 7.59911 24.2066 7.63517C23.8979 7.71332 23.7344 7.93572 23.4316 8.6871C23.2863 9.04776 22.8988 9.87127 22.5719 10.5145C21.367 12.9068 19.9562 14.8604 19.151 15.2451C18.9754 15.3353 18.9451 15.3293 18.7271 15.2211C18.5758 15.1429 18.4547 15.0107 18.3639 14.8364C18.1217 14.3735 18.0975 13.8265 18.1701 11.0855C18.2428 8.37453 18.2246 8.07999 17.9643 7.57506C17.8916 7.42479 17.7584 7.25047 17.6736 7.19036C17.4436 7.02205 16.6564 6.85374 15.9541 6.81767C15.6211 6.79964 15.2154 6.7756 15.0459 6.76357C14.8824 6.75756 14.1982 6.76958 13.5322 6.79363Z" fill="#0177FF"/>
</g>
<defs>
<clipPath id="clip0_43_473">
<rect width="31" height="31" fill="white"/>
</clipPath>
</defs>
</svg>
