<svg width="18" height="18" viewBox="0 0 18 18" fill="none" xmlns="http://www.w3.org/2000/svg">
<path d="M10.7578 17.0859C10.0125 16.9699 9.43945 16.5164 9.16172 15.8098C9.09141 15.6305 9.05625 15.4652 9.03164 15.1523C8.96836 14.3754 8.83125 14.1363 7.875 13.1273C7.15078 12.368 6.88008 12.0059 6.55664 11.3555C6.3 10.8387 6.075 10.4766 5.9625 10.3957C5.88516 10.3395 5.79023 10.3184 5.56523 10.3078L5.27344 10.2902V10.6664V11.0391H2.63672H0V5.95898V0.878906H2.63672H5.27344V1.19531C5.27344 1.37109 5.28047 1.51172 5.29102 1.51172C5.30156 1.51172 5.41758 1.44141 5.55117 1.35703C5.85352 1.16367 6.07852 1.04766 6.32812 0.963281C6.51445 0.9 6.70078 0.896484 10.916 0.896484C15.7535 0.896484 15.4441 0.882422 15.9082 1.12148C16.5094 1.43086 16.8855 2.05664 16.8855 2.75625C16.8855 3.11836 16.8434 3.29766 16.6922 3.61055L16.5832 3.83203L16.773 4.03594C17.3039 4.60547 17.4164 5.49844 17.0508 6.17695L16.9559 6.35977L17.1176 6.52852C17.3426 6.76055 17.4937 7.03828 17.5781 7.36875C17.6941 7.82578 17.6484 8.26523 17.4375 8.68359L17.325 8.90508L17.4832 9.0668C17.8418 9.43594 18 9.82617 18 10.35C18 10.909 17.8453 11.2992 17.4727 11.6719C17.3461 11.802 17.1492 11.9531 17.0297 12.0164C16.6219 12.2273 16.5656 12.2344 14.4176 12.2344C12.8742 12.2344 12.477 12.2449 12.491 12.2801C12.8531 13.0992 13.0465 14.0238 13.05 14.9414C13.0535 15.5215 13.0043 15.7395 12.7758 16.1262C12.368 16.8082 11.5383 17.202 10.7578 17.0859ZM11.468 15.7641C11.5488 15.7078 11.6648 15.5918 11.7246 15.5074L11.8301 15.3562L11.8266 14.8605C11.823 14.0344 11.6262 13.2469 11.2395 12.5016C11.1023 12.2379 10.9441 12.0234 10.5891 11.6051L10.1215 11.0566L13.2258 11.0391C16.6148 11.0215 16.4215 11.032 16.6184 10.8211C16.9312 10.4871 16.8223 9.96328 16.4004 9.76992C16.2703 9.71016 16.1332 9.70312 14.3895 9.70312H12.5156V9.10547V8.50781H14.1609C15.198 8.50781 15.852 8.49375 15.9363 8.46914C16.1016 8.42344 16.309 8.24766 16.3687 8.09648C16.5023 7.78008 16.3617 7.39336 16.0594 7.2457C15.9082 7.17187 15.8695 7.17187 14.2102 7.17187H12.5156V6.57422V5.98008L14.0379 5.96953L15.5566 5.95898L15.7043 5.87461C15.8836 5.77266 15.982 5.64258 16.0383 5.43516C16.1121 5.15742 15.9645 4.85508 15.6762 4.71094C15.5496 4.64414 15.4617 4.64062 14.0273 4.64062H12.5156V4.02539V3.41016H13.8516C15.1137 3.41016 15.198 3.40664 15.3246 3.33984C15.7922 3.10078 15.7887 2.41172 15.3211 2.1832L15.1664 2.10937H10.9406C7.43203 2.10937 6.69375 2.11641 6.59883 2.15859C6.53555 2.1832 6.30352 2.32031 6.08203 2.45742C5.86055 2.59453 5.58984 2.74219 5.47734 2.78437L5.27344 2.8582V5.97656V9.09492L5.68828 9.1125C6.57773 9.15469 6.93281 9.43945 7.54102 10.6207C7.90664 11.3273 8.12813 11.6227 8.82422 12.3574C9.47109 13.043 9.72773 13.3699 9.93164 13.7918C10.1215 14.1926 10.1883 14.4422 10.227 14.9344C10.2586 15.3281 10.2797 15.402 10.4344 15.6059C10.6523 15.8977 11.1656 15.9785 11.468 15.7641ZM4.04297 5.95898V2.10937H2.61914H1.19531V5.95898V9.80859H2.61914H4.04297V5.95898Z" fill="#BEBEBE"/>
<path d="M2.3726 3.90321C2.31283 3.88563 2.2144 3.82235 2.15463 3.76259C1.80658 3.42157 1.97182 2.84852 2.44643 2.74305C2.60463 2.7079 2.82612 2.7536 2.94213 2.84501C3.15307 3.02079 3.2269 3.35477 3.10385 3.61141C2.99135 3.85048 2.64682 3.98759 2.3726 3.90321Z" fill="#BEBEBE"/>
</svg>
