<svg width="14" height="14" viewBox="0 0 14 14" fill="none" xmlns="http://www.w3.org/2000/svg">
<g clip-path="url(#clip0_15_7)">
<path d="M4.26016 1.3043L2.76172 1.3125V1.6543V1.99609H1.38086H0V2.42813C0 2.66602 0.0191406 2.99414 0.0382812 3.16094C0.216016 4.48711 0.669922 5.53984 1.38086 6.25078C1.83203 6.70742 2.30781 6.97813 2.94766 7.14219C3.23477 7.21602 3.325 7.22695 3.80352 7.23789L4.33945 7.2543L4.48711 7.44297C4.70586 7.72461 5.17891 8.17031 5.44687 8.34805C5.57539 8.43281 5.78594 8.55313 5.91719 8.61328L6.15234 8.72539V9.7207V10.7188H5.14062H4.12891V11.3477V11.9766H3.80078H3.47266V12.3457V12.7148H7H10.5273V12.3457V11.9766H10.1992H9.87109V11.3477V10.7188H8.85937H7.84766V9.72344V8.72539L8.10742 8.60234C8.24961 8.53672 8.46289 8.41367 8.57773 8.33438C8.83477 8.15938 9.31055 7.70547 9.51562 7.44023L9.66602 7.24609H10.0625C10.8883 7.24609 11.5035 7.07656 12.1078 6.68281C12.425 6.475 12.8461 6.04844 13.0785 5.70117C13.6582 4.82344 14 3.61211 14 2.42813V1.99609H12.6191H11.2383V1.6543V1.3125H10.3824C9.90937 1.3125 8.67617 1.30703 7.63984 1.3043C6.60352 1.29883 5.0832 1.29883 4.26016 1.3043ZM2.82734 3.04063C2.83555 3.08984 2.86562 3.32227 2.89844 3.55469C3.02695 4.50352 3.27031 5.3375 3.62305 6.04297C3.69141 6.17695 3.74609 6.2918 3.74609 6.29727C3.74609 6.31914 3.30039 6.25352 3.11719 6.2043C2.39805 6.00742 1.87305 5.54805 1.48203 4.77148C1.25234 4.31211 1.06094 3.68047 0.989844 3.13633L0.965234 2.95313H1.88945H2.81367L2.82734 3.04063ZM13.0102 3.13633C12.8871 4.08242 12.4934 5.01484 11.993 5.54531C11.6074 5.95547 11.0578 6.2207 10.4672 6.28359C10.3496 6.29453 10.2539 6.30273 10.2539 6.3C10.2539 6.3 10.3332 6.1332 10.4289 5.93086C10.7488 5.26641 10.9812 4.44336 11.1016 3.56289C11.1344 3.325 11.1645 3.08984 11.1727 3.04063L11.1863 2.95313H12.1105H13.0348L13.0102 3.13633Z" fill="#FA501A"/>
</g>
<defs>
<clipPath id="clip0_15_7">
<rect width="14" height="14" fill="white"/>
</clipPath>
</defs>
</svg>
