<svg width="24" height="24" viewBox="0 0 24 24" fill="none" xmlns="http://www.w3.org/2000/svg">
<path d="M15.7653 4.0825C14.4008 4.33386 13.2357 4.9962 12.3898 5.99768L12.1784 6.24505L11.9988 6.03358C11.1609 5.06403 10.0038 4.3977 8.73105 4.14235C8.22832 4.03861 7.03532 4.0426 6.5685 4.14235C4.82888 4.5174 3.3885 5.59469 2.60647 7.11486C2.33915 7.62957 2.21546 7.96871 2.09177 8.51933C2.01197 8.88241 2 9.03802 2 9.77217C2.00399 10.5422 2.01197 10.642 2.10773 11.029C2.2793 11.7193 2.53465 12.3098 2.9137 12.8963C3.08926 13.1676 3.84336 14.0694 4.52963 14.8195C5.47126 15.8529 7.87321 18.2229 9.42131 19.6433C10.3111 20.4573 10.5824 20.6448 11.1849 20.8443C12.1664 21.1675 13.3993 20.976 14.1893 20.3775C14.8477 19.8747 18.2032 16.5032 20.6451 13.8898C21.5428 12.9282 21.9897 12.1382 22.273 11.0091C22.3567 10.6859 22.3807 10.4784 22.3966 9.91182C22.4286 8.83054 22.2889 8.12033 21.874 7.25451C21.3074 6.07348 20.4216 5.17175 19.2645 4.58922C18.4985 4.2022 17.8481 4.05058 16.8626 4.02664C16.296 4.01068 16.0885 4.02265 15.7653 4.0825ZM17.5608 6.3847C18.4227 6.61612 19.2326 7.23456 19.6755 7.98467C20.282 9.02206 20.286 10.3268 19.6875 11.3881C19.3842 11.9228 19.1369 12.1981 16.4676 14.9392C14.4167 17.0459 12.9484 18.4663 12.6811 18.594C12.4138 18.7296 12.0547 18.7376 11.7913 18.6219C11.5998 18.5341 10.9814 17.9755 9.20187 16.2758C7.52609 14.6758 6.40491 13.5108 5.39545 12.3337C4.73711 11.5637 4.55357 11.2604 4.36604 10.6021C4.24634 10.1831 4.23836 9.26944 4.35008 8.87443C4.45382 8.52332 4.64933 8.09639 4.84085 7.8131C5.06029 7.48992 5.57899 7.00314 5.92611 6.79966C7.21088 6.03358 8.89464 6.2251 9.99587 7.2585C10.2951 7.5378 10.5106 7.83305 10.7619 8.29589C11.0053 8.75074 11.2048 8.9662 11.54 9.13378C11.7514 9.24151 11.8113 9.24949 12.1744 9.25348C12.5454 9.25348 12.5933 9.2455 12.8367 9.1258C13.1639 8.9662 13.3793 8.73478 13.5749 8.34776C13.7943 7.90886 13.9739 7.64553 14.2452 7.36623C14.7679 6.81961 15.4422 6.46051 16.2122 6.32086C16.4875 6.26899 17.2815 6.3049 17.5608 6.3847Z" fill="#222222"/>
</svg>
