<svg width="17" height="17" viewBox="0 0 17 17" fill="none" xmlns="http://www.w3.org/2000/svg">
<g clip-path="url(#clip0_63_258)">
<path d="M7.57017 4.34961C5.07661 4.58535 2.8686 5.55156 1.04575 7.19512C0.697119 7.51055 0.17251 8.0584 0.0562988 8.23437C-0.0200684 8.34394 -0.0200684 8.65605 0.0562988 8.76562C0.17251 8.9416 0.697119 9.48945 1.04575 9.80488C3.18735 11.7373 5.93989 12.7566 8.79868 12.6736C11.3088 12.5973 13.5235 11.7771 15.5223 10.1801C15.8909 9.88125 16.7309 9.06113 16.8936 8.83535C16.9833 8.7125 16.9999 8.65937 16.9999 8.50332C16.9999 8.38379 16.9799 8.2875 16.9434 8.23437C16.8272 8.0584 16.3026 7.51055 15.954 7.19512C14.2506 5.65781 12.1489 4.6916 9.86118 4.39941C9.3731 4.33633 8.02837 4.30644 7.57017 4.34961ZM9.18052 5.77734C10.1766 6.03301 10.9569 6.81328 11.2258 7.82265C11.3221 8.18457 11.3254 8.80879 11.2291 9.16738C10.9569 10.19 10.1932 10.957 9.1772 11.226C8.80864 11.3256 8.19106 11.3256 7.82251 11.226C6.80649 10.957 6.04282 10.19 5.77056 9.16738C5.67759 8.81543 5.67759 8.18457 5.77056 7.83262C6.02954 6.86972 6.7102 6.13926 7.64321 5.83047C8.12134 5.67109 8.68579 5.65117 9.18052 5.77734ZM5.65767 5.91679C5.11313 6.50781 4.76782 7.2914 4.67817 8.1414C4.5686 9.18066 4.94712 10.3162 5.65767 11.0799C5.76392 11.1961 5.84028 11.2891 5.83032 11.2891C5.81704 11.2891 5.64106 11.2359 5.4352 11.1695C4.21997 10.7777 3.12427 10.1801 2.13481 9.3666C1.71645 9.02129 1.22837 8.55312 1.22837 8.49668C1.22837 8.44023 1.70649 7.98535 2.13481 7.6334C3.11431 6.82656 4.1436 6.26211 5.36216 5.85703C5.60122 5.77734 5.80708 5.71094 5.82368 5.71094C5.83696 5.71094 5.76392 5.8039 5.65767 5.91679ZM11.5645 5.83047C12.7797 6.22226 13.8754 6.81992 14.8649 7.6334C15.2733 7.96875 15.7713 8.44687 15.7713 8.5C15.7713 8.55312 15.2733 9.03125 14.8649 9.3666C13.8754 10.1801 12.7797 10.7777 11.5645 11.1695C11.3586 11.2359 11.1827 11.2891 11.1694 11.2891C11.1594 11.2891 11.2358 11.1961 11.342 11.0799C12.0526 10.3162 12.4311 9.18066 12.3215 8.1414C12.2319 7.29472 11.8833 6.50449 11.342 5.91679C11.2358 5.8039 11.1594 5.71094 11.1694 5.71094C11.1827 5.71094 11.3586 5.76406 11.5645 5.83047Z" fill="#777777"/>
<path d="M8.21768 6.83985C7.82256 6.90957 7.54033 7.06563 7.25811 7.3711C7.04229 7.60352 6.92275 7.83926 6.85635 8.15137C6.79658 8.44356 6.79658 8.55645 6.85635 8.84864C6.92275 9.16075 7.04229 9.39649 7.25811 9.62891C7.61338 10.0107 7.97529 10.1701 8.4999 10.1701C9.02451 10.1701 9.38643 10.0107 9.7417 9.62891C9.84131 9.51934 9.96084 9.35332 10.0073 9.25703C10.1003 9.06778 10.1933 8.68926 10.1933 8.5C10.1933 8.31075 10.1003 7.93223 10.0073 7.74297C9.90107 7.52715 9.61553 7.21172 9.39639 7.07227C9.0876 6.87305 8.58623 6.77676 8.21768 6.83985ZM8.67588 7.87246C8.81865 7.90899 9.01123 8.06836 9.08096 8.19785C9.27021 8.56309 9.06104 9.01465 8.65264 9.13086C8.32393 9.22051 7.96865 9.00469 7.86904 8.65274C7.83252 8.51328 7.83252 8.47344 7.879 8.32071C7.94209 8.12149 8.10146 7.95215 8.2874 7.88575C8.44678 7.8293 8.51318 7.82598 8.67588 7.87246Z" fill="#777777"/>
</g>
<defs>
<clipPath id="clip0_63_258">
<rect width="17" height="17" fill="white"/>
</clipPath>
</defs>
</svg>
