<svg width="18" height="18" viewBox="0 0 18 18" fill="none" xmlns="http://www.w3.org/2000/svg">
<path d="M10.7578 0.914064C10.0125 1.03008 9.43945 1.48359 9.16172 2.19024C9.09141 2.36953 9.05625 2.53477 9.03164 2.84766C8.96836 3.62461 8.83125 3.86367 7.875 4.87266C7.15078 5.63203 6.88008 5.99414 6.55664 6.64453C6.3 7.16133 6.075 7.52344 5.9625 7.6043C5.88516 7.66055 5.79023 7.68164 5.56523 7.69219L5.27344 7.70977V7.33359V6.96094H2.63672H0V12.041V17.1211H2.63672H5.27344V16.8047C5.27344 16.6289 5.28047 16.4883 5.29102 16.4883C5.30156 16.4883 5.41758 16.5586 5.55117 16.643C5.85352 16.8363 6.07852 16.9523 6.32812 17.0367C6.51445 17.1 6.70078 17.1035 10.916 17.1035C15.7535 17.1035 15.4441 17.1176 15.9082 16.8785C16.5094 16.5691 16.8855 15.9434 16.8855 15.2438C16.8855 14.8816 16.8434 14.7023 16.6922 14.3895L16.5832 14.168L16.773 13.9641C17.3039 13.3945 17.4164 12.5016 17.0508 11.823L16.9559 11.6402L17.1176 11.4715C17.3426 11.2395 17.4937 10.9617 17.5781 10.6313C17.6941 10.1742 17.6484 9.73477 17.4375 9.31641L17.325 9.09492L17.4832 8.9332C17.8418 8.56406 18 8.17383 18 7.65C18 7.09102 17.8453 6.70078 17.4727 6.32813C17.3461 6.19805 17.1492 6.04688 17.0297 5.98359C16.6219 5.77266 16.5656 5.76563 14.4176 5.76563C12.8742 5.76563 12.477 5.75508 12.491 5.71992C12.8531 4.90078 13.0465 3.97617 13.05 3.05859C13.0535 2.47852 13.0043 2.26055 12.7758 1.87383C12.368 1.1918 11.5383 0.798048 10.7578 0.914064ZM11.468 2.23594C11.5488 2.29219 11.6648 2.4082 11.7246 2.49258L11.8301 2.64375L11.8266 3.13945C11.823 3.96563 11.6262 4.75313 11.2395 5.49844C11.1023 5.76211 10.9441 5.97656 10.5891 6.39492L10.1215 6.94336L13.2258 6.96094C16.6148 6.97852 16.4215 6.96797 16.6184 7.17891C16.9312 7.51289 16.8223 8.03672 16.4004 8.23008C16.2703 8.28984 16.1332 8.29688 14.3895 8.29688H12.5156V8.89453V9.49219H14.1609C15.198 9.49219 15.852 9.50625 15.9363 9.53086C16.1016 9.57656 16.309 9.75234 16.3687 9.90352C16.5023 10.2199 16.3617 10.6066 16.0594 10.7543C15.9082 10.8281 15.8695 10.8281 14.2102 10.8281H12.5156V11.4258V12.0199L14.0379 12.0305L15.5566 12.041L15.7043 12.1254C15.8836 12.2273 15.982 12.3574 16.0383 12.5648C16.1121 12.8426 15.9645 13.1449 15.6762 13.2891C15.5496 13.3559 15.4617 13.3594 14.0273 13.3594H12.5156V13.9746V14.5898H13.8516C15.1137 14.5898 15.198 14.5934 15.3246 14.6602C15.7922 14.8992 15.7887 15.5883 15.3211 15.8168L15.1664 15.8906H10.9406C7.43203 15.8906 6.69375 15.8836 6.59883 15.8414C6.53555 15.8168 6.30352 15.6797 6.08203 15.5426C5.86055 15.4055 5.58984 15.2578 5.47734 15.2156L5.27344 15.1418V12.0234V8.90508L5.68828 8.8875C6.57773 8.84531 6.93281 8.56055 7.54102 7.3793C7.90664 6.67266 8.12813 6.37735 8.82422 5.64258C9.47109 4.95703 9.72773 4.63008 9.93164 4.2082C10.1215 3.80742 10.1883 3.55781 10.227 3.06563C10.2586 2.67188 10.2797 2.59805 10.4344 2.39414C10.6523 2.10235 11.1656 2.02149 11.468 2.23594ZM4.04297 12.041V15.8906H2.61914H1.19531V12.041V8.19141H2.61914H4.04297V12.041Z" fill="#BEBEBE"/>
<path d="M2.3726 14.0968C2.31283 14.1144 2.2144 14.1776 2.15463 14.2374C1.80658 14.5784 1.97182 15.1515 2.44643 15.2569C2.60463 15.2921 2.82612 15.2464 2.94213 15.155C3.15307 14.9792 3.2269 14.6452 3.10385 14.3886C2.99135 14.1495 2.64682 14.0124 2.3726 14.0968Z" fill="#BEBEBE"/>
</svg>
