<svg width="164" height="25" viewBox="0 0 164 25" fill="none" xmlns="http://www.w3.org/2000/svg">
<g clip-path="url(#clip0_307_562)">
<path d="M6.6085 23.387C4.58648 22.3583 2.89646 20.7941 1.72888 18.8706C0.561309 16.947 -0.0374079 14.7406 0.00020429 12.5001C-0.0363807 10.2605 0.562823 8.05523 1.73034 6.13274C2.89786 4.21024 4.58733 2.64684 6.6085 1.61857C8.75665 0.521106 11.1476 -0.0349677 13.5675 9.63539e-05C15.9874 -0.0349677 18.3783 0.521106 20.5265 1.61857C22.5477 2.64684 24.2371 4.21024 25.4046 6.13274C26.5722 8.05523 27.1714 10.2605 27.1348 12.5001C27.1724 14.7406 26.5737 16.947 25.4061 18.8706C24.2385 20.7941 22.5485 22.3583 20.5265 23.387C18.3783 24.4845 15.9874 25.0406 13.5675 25.0055C11.1476 25.0406 8.75665 24.4845 6.6085 23.387ZM16.9155 18.5316C17.9183 17.9552 18.7395 17.1169 19.2881 16.1093C19.8841 15.006 20.184 13.7711 20.1594 12.5217C20.184 11.2723 19.8841 10.0374 19.2881 8.93406C18.7452 7.9126 17.9235 7.06061 16.9155 6.47398C15.8981 5.89698 14.7415 5.60066 13.5675 5.61619C12.3935 5.60066 11.2369 5.89698 10.2195 6.47398C9.21546 7.04877 8.39388 7.88756 7.84687 8.8963C7.25089 9.99961 6.95099 11.2345 6.97563 12.4839C6.95099 13.7333 7.25089 14.9682 7.84687 16.0715C8.39388 17.0803 9.21546 17.919 10.2195 18.4938C11.2369 19.0708 12.3935 19.3672 13.5675 19.3516C14.74 19.3721 15.8965 19.0814 16.9155 18.51V18.5316Z" fill="#E53935"/>
<path d="M49.9789 5.93433V24.5468H43.4034V11.0919H37.0417V24.5198H30.4663V5.93433H49.9789Z" fill="#E53935"/>
<path d="M71.3597 11.0919H65.2884V24.5198H58.7129V11.0919H52.6033V5.93433H71.3706L71.3597 11.0919Z" fill="#E53935"/>
<path d="M95.563 0.480225V24.5199H88.7684V5.86974H81.7546L81.6121 9.78644C81.5636 12.5977 81.2777 15.4001 80.7573 18.1647C80.4522 20.004 79.6518 21.7292 78.4395 23.1604C77.3436 24.3401 75.7965 24.9299 73.7983 24.9299C72.7409 24.9143 71.689 24.7767 70.6641 24.5199L71.0476 18.9524C71.3546 19.0241 71.6691 19.0603 71.9846 19.0603C72.3988 19.0761 72.8101 18.9849 73.1773 18.7956C73.5446 18.6063 73.855 18.3255 74.0778 17.9813C74.6379 17.0772 74.9948 16.0654 75.1244 15.0141C75.3666 13.3696 75.5075 11.7121 75.5463 10.0508L75.8915 0.480225H95.563Z" fill="#E53935"/>
<path d="M100.412 5.93433H106.988V15.6452L114.922 5.93433H121.026V24.5468H114.396V14.7334L106.549 24.5198H100.412V5.93433Z" fill="#E53935"/>
<path d="M129.361 23.592C127.764 22.8261 126.424 21.627 125.497 20.1359C124.57 18.6448 124.095 16.9239 124.128 15.1759C124.09 13.4341 124.564 11.7186 125.492 10.2354C126.42 8.75212 127.764 7.56407 129.361 6.8138C131.111 5.98244 133.034 5.5667 134.977 5.59995C136.916 5.54902 138.833 6.01702 140.523 6.95407C142.02 7.81131 143.179 9.14233 143.81 10.7305L138.687 13.3039C137.827 11.6368 136.566 10.8006 134.917 10.8006C134.371 10.7847 133.827 10.88 133.32 11.0805C132.812 11.2811 132.353 11.5825 131.969 11.9659C131.564 12.4009 131.252 12.9116 131.052 13.4677C130.851 14.0238 130.766 14.6139 130.802 15.2029C130.766 15.7984 130.851 16.395 131.052 16.9581C131.252 17.5211 131.564 18.0394 131.969 18.483C132.349 18.8725 132.808 19.1793 133.315 19.3837C133.823 19.5881 134.369 19.6856 134.917 19.6699C136.561 19.6699 137.827 18.8337 138.687 17.1612L143.81 19.74C143.183 21.3309 142.023 22.6632 140.523 23.5164C138.827 24.4347 136.911 24.884 134.977 24.8166C133.033 24.8514 131.108 24.4317 129.361 23.592Z" fill="#E53935"/>
<path d="M163.542 11.0919H157.47V24.5198H150.895V11.0919H144.774V5.93433H163.542V11.0919Z" fill="#E53935"/>
</g>
<defs>
<clipPath id="clip0_307_562">
<rect width="163.542" height="25" fill="white"/>
</clipPath>
</defs>
</svg>
