<svg width="18" height="18" viewBox="0 0 18 18" fill="none" xmlns="http://www.w3.org/2000/svg">
<path d="M5.47734 1.67695L3.55078 1.6875V2.12695V2.56641H1.77539H0V3.12188C0 3.42773 0.0246094 3.84961 0.0492187 4.06406C0.277734 5.76914 0.861328 7.12266 1.77539 8.03672C2.35547 8.62383 2.96719 8.97188 3.78984 9.18281C4.15898 9.27773 4.275 9.2918 4.89023 9.30586L5.5793 9.32695L5.76914 9.56953C6.05039 9.93164 6.65859 10.5047 7.00312 10.7332C7.16836 10.8422 7.43906 10.9969 7.60781 11.0742L7.91016 11.2184V12.498V13.7813H6.60937H5.30859V14.5898V15.3984H4.88672H4.46484V15.873V16.3477H9H13.5352V15.873V15.3984H13.1133H12.6914V14.5898V13.7813H11.3906H10.0898V12.5016V11.2184L10.4238 11.0602C10.6066 10.9758 10.8809 10.8176 11.0285 10.7156C11.359 10.4906 11.9707 9.90703 12.2344 9.56602L12.4277 9.31641H12.9375C13.9992 9.31641 14.7902 9.09844 15.5672 8.59219C15.975 8.325 16.5164 7.77656 16.8152 7.33008C17.5605 6.20156 18 4.64414 18 3.12188V2.56641H16.2246H14.4492V2.12695V1.6875H13.3488C12.7406 1.6875 11.1551 1.68047 9.82266 1.67695C8.49023 1.66992 6.53555 1.66992 5.47734 1.67695ZM3.63516 3.90938C3.6457 3.97266 3.68437 4.27148 3.72656 4.57031C3.8918 5.79023 4.20469 6.8625 4.6582 7.76953C4.74609 7.9418 4.81641 8.08945 4.81641 8.09648C4.81641 8.12461 4.24336 8.04023 4.00781 7.97695C3.0832 7.72383 2.4082 7.1332 1.90547 6.13477C1.61016 5.54414 1.36406 4.73203 1.27266 4.03242L1.24102 3.79688H2.4293H3.61758L3.63516 3.90938ZM16.7273 4.03242C16.5691 5.24883 16.0629 6.44766 15.4195 7.12969C14.9238 7.65703 14.2172 7.99805 13.4578 8.07891C13.3066 8.09297 13.1836 8.10352 13.1836 8.1C13.1836 8.1 13.2855 7.88555 13.4086 7.62539C13.8199 6.77109 14.1187 5.71289 14.2734 4.58086C14.3156 4.275 14.3543 3.97266 14.3648 3.90938L14.3824 3.79688H15.5707H16.759L16.7273 4.03242Z" fill="#FA501A"/>
</svg>
