<svg width="30" height="30" viewBox="0 0 30 30" fill="none" xmlns="http://www.w3.org/2000/svg">
<path d="M22.4274 3.07082C20.966 3.39262 19.6946 4.38442 19.0352 5.71913C18.5921 6.61597 18.4232 7.80824 18.6079 8.70507C18.6554 8.94247 18.6765 9.14294 18.6501 9.16932C18.6237 9.1957 16.7614 10.1611 14.5088 11.3112L10.4097 13.4056L9.94547 12.9571C9.38627 12.419 8.80596 12.055 8.10432 11.8176C5.74616 11.021 3.19808 12.0761 2.10077 14.3024C1.71038 15.099 1.62598 15.4736 1.62598 16.4917C1.62598 17.2409 1.6418 17.4202 1.74731 17.7842C2.02164 18.7549 2.6547 19.7204 3.41438 20.3323C3.87335 20.7016 4.71743 21.1342 5.23443 21.2661C7.04921 21.7251 8.86927 21.1975 10.1407 19.8417L10.473 19.483L11.8763 20.2004C16.6823 22.6536 18.7187 23.7139 18.7081 23.7561C18.7028 23.7772 18.6606 23.9988 18.6079 24.2468C18.4971 24.8007 18.5287 25.7819 18.6817 26.3306C19.1513 28.0451 20.4543 29.364 22.1478 29.8494C22.5118 29.9549 22.6911 29.9707 23.4666 29.9707C24.4901 29.9707 24.8647 29.8916 25.6296 29.5223C26.9116 28.905 27.8295 27.7866 28.2515 26.32C28.357 25.9613 28.3729 25.7925 28.3676 25.0381C28.3623 24.252 28.3518 24.1201 28.2252 23.7034C27.5921 21.6354 25.8776 20.2743 23.7462 20.1477C22.306 20.0633 21.003 20.575 19.9479 21.6354L19.5944 21.9888L15.49 19.8945C13.2321 18.7391 11.3699 17.779 11.3488 17.7631C11.3277 17.742 11.3435 17.5416 11.3857 17.3147C11.5123 16.6553 11.4701 15.827 11.2802 15.2256C11.2538 15.1465 11.9554 14.7719 15.3951 13.0152L19.5416 10.8944L19.6841 11.0685C20.1167 11.5961 20.9238 12.1975 21.5358 12.456C22.6595 12.9255 23.952 12.9677 25.0968 12.5773C26.5845 12.0709 27.7504 10.8417 28.2199 9.29066C28.3465 8.86334 28.3623 8.73145 28.3676 7.97178C28.3729 7.30179 28.3518 7.04328 28.2726 6.73203C27.8295 4.98583 26.537 3.64585 24.8013 3.1394C24.2896 2.99168 22.9602 2.94948 22.4274 3.07082Z" fill="#5941B6"/>
</svg>
