<svg width="30" height="30" viewBox="0 0 30 30" fill="none" xmlns="http://www.w3.org/2000/svg">
<path d="M27.4756 4.04863C27.297 4.09193 24.3255 5.23397 20.8723 6.58711C17.4191 7.94025 11.7576 10.1648 8.28812 11.5234C4.81868 12.8819 1.88507 14.051 1.76059 14.1214C1.64151 14.1917 1.45207 14.3487 1.34382 14.4678C1.17062 14.6626 1.14355 14.7222 1.14355 14.9603C1.14355 15.4258 1.41418 15.7939 1.94461 16.0645C2.04204 16.1186 3.49801 16.622 5.18132 17.1849L8.23941 18.2133L16.0984 13.2229C20.4231 10.4733 24.0711 8.18381 24.2064 8.12428C24.5528 7.97814 24.7423 8.02685 24.7423 8.25959C24.7423 8.40573 24.6719 8.50315 24.2876 8.8658C24.0386 9.10936 21.1646 11.702 17.9062 14.6356C12.38 19.6043 11.9849 19.9723 12.0661 20.0535C12.38 20.3621 22.2092 27.8151 22.3878 27.8801C22.6855 27.9937 23.3621 27.9937 23.6165 27.8801C23.8925 27.761 24.3255 27.3442 24.4338 27.1007C24.5528 26.8246 28.8558 5.08784 28.8558 4.76308C28.8558 4.46539 28.7421 4.24348 28.5311 4.11899C28.32 3.9945 27.8545 3.96203 27.4756 4.04863Z" fill="#23A0DC"/>
</svg>
