<svg width="30" height="30" viewBox="0 0 30 30" fill="none" xmlns="http://www.w3.org/2000/svg">
<g clip-path="url(#clip0_91_634)">
<path d="M13.0957 6.57453C11.127 6.64433 10.4648 6.84211 10.002 7.49945C9.84961 7.71468 9.87891 7.77867 10.1836 7.84266C10.8047 7.97645 11.2441 8.27894 11.4375 8.69778C11.8066 9.53544 11.9062 11.554 11.666 13.3747C11.543 14.2764 11.3086 14.765 10.957 14.8407C10.4941 14.9395 9.71484 14.3055 9.05273 13.2933C8.52539 12.4905 7.04883 9.6576 6.5625 8.51744C6.25781 7.80194 6.12891 7.62742 5.76562 7.44128L5.47852 7.29585L3.13477 7.3133C1.8457 7.31912 0.691406 7.34239 0.568359 7.35984C0.445312 7.37729 0.269531 7.45873 0.175781 7.54017C0.0234375 7.66233 0 7.72632 0 7.98227C0 8.22659 0.0820312 8.45346 0.474609 9.32602C1.95703 12.5952 3.62109 15.4864 5.37891 17.8481C6.7793 19.7329 7.61719 20.6112 8.79492 21.4373C10.459 22.6065 11.7129 23.165 13.2129 23.4093C13.9277 23.5256 16.5703 23.5256 16.8926 23.4151C17.4023 23.2289 17.5254 22.9904 17.584 22.0132C17.6543 20.8497 17.918 20.1633 18.4453 19.7561C18.9609 19.3606 19.4707 19.6747 20.8711 21.2395C21.7969 22.2749 22.2656 22.7287 22.7285 23.0195C23.0859 23.2464 23.5957 23.4558 23.9414 23.5256C24.2109 23.5722 25.8223 23.5663 27.8438 23.5024L29.291 23.4558L29.5723 23.2871C29.8945 23.0893 30 22.9206 30 22.5891C30 21.7281 29.2383 20.6869 26.9238 18.4066C25.2129 16.7196 25.0957 16.5625 25.1543 16.0332C25.207 15.626 25.3945 15.3409 26.9238 13.3166C28.9043 10.6989 29.5605 9.68087 29.8887 8.72686C30.041 8.29058 30.0352 7.7903 29.8828 7.62742C29.5898 7.31912 29.5488 7.3133 26.4844 7.32493C24.832 7.32493 23.5547 7.35402 23.4258 7.38892C23.127 7.46455 22.9688 7.67978 22.6758 8.40692C22.5352 8.75595 22.1602 9.55289 21.8438 10.1753C20.6777 12.4905 19.3125 14.3811 18.5332 14.7534C18.3633 14.8407 18.334 14.8348 18.123 14.7301C17.9766 14.6545 17.8594 14.5265 17.7715 14.3578C17.5371 13.9099 17.5137 13.3806 17.584 10.728C17.6543 8.10443 17.6367 7.81939 17.3848 7.33075C17.3145 7.18532 17.1855 7.01663 17.1035 6.95846C16.8809 6.79558 16.1191 6.6327 15.4395 6.59779C15.1172 6.58034 14.7246 6.55707 14.5605 6.54544C14.4023 6.53962 13.7402 6.55126 13.0957 6.57453Z" fill="#0177FF"/>
</g>
<defs>
<clipPath id="clip0_91_634">
<rect width="30" height="30" fill="white"/>
</clipPath>
</defs>
</svg>
