<svg width="20" height="19" viewBox="0 0 20 19" fill="none" xmlns="http://www.w3.org/2000/svg">
<path d="M8.5578 1.00202C9.13887 -0.207513 10.8611 -0.207511 11.4422 1.00202L13.0966 4.44572C13.3298 4.93123 13.7917 5.26679 14.3255 5.33859L18.1119 5.84785C19.4418 6.02672 19.974 7.66469 19.0033 8.59109L16.2393 11.2287C15.8497 11.6005 15.6732 12.1435 15.7699 12.6734L16.4556 16.4318C16.6965 17.7519 15.3032 18.7642 14.1221 18.1272L10.7595 16.3136C10.2855 16.058 9.71455 16.058 9.24048 16.3136L5.87789 18.1272C4.69685 18.7642 3.3035 17.7519 3.54435 16.4318L4.23008 12.6734C4.32675 12.1435 4.15033 11.6005 3.76067 11.2287L0.996745 8.59109C0.0259743 7.66469 0.558185 6.02672 1.88808 5.84785L5.67447 5.33859C6.20829 5.26679 6.67016 4.93123 6.9034 4.44572L8.5578 1.00202Z" fill="#BEBEBE"/>
</svg>
