<svg width="24" height="24" viewBox="0 0 24 24" fill="none" xmlns="http://www.w3.org/2000/svg">
<path d="M16.7546 3.04887C16.3944 3.11942 15.8783 3.28652 15.5849 3.43876C15.0057 3.72838 14.8014 3.91033 12.8817 5.82633C11.0251 7.67921 11.014 7.69035 11.014 7.84259C11.014 8.10622 11.092 8.14335 11.7047 8.18791C12.321 8.23247 12.6775 8.29931 13.2011 8.47383C13.4536 8.55923 13.6244 8.59636 13.6838 8.58151C13.7432 8.56666 14.2965 8.0431 15.0985 7.24848C15.856 6.4947 16.4909 5.89317 16.5875 5.83747C17.2076 5.481 17.9836 5.49214 18.5592 5.85975C18.7968 6.00828 19.1162 6.36103 19.235 6.60238C19.4392 7.01826 19.4838 7.53811 19.3501 7.97997C19.2164 8.42555 19.1978 8.44783 16.9105 10.7389C15.4364 12.2167 14.6566 12.9705 14.5192 13.0559C14.1962 13.249 13.9363 13.3232 13.5575 13.3307C13.0191 13.3381 12.7146 13.223 12.2059 12.8182C11.8569 12.5398 11.6527 12.4618 11.2702 12.4618C10.2974 12.4618 9.71811 13.4643 10.1748 14.3481C10.2082 14.4112 10.3234 14.5486 10.4273 14.6563C11.1143 15.3284 12.0017 15.7554 12.9783 15.8816C13.5204 15.9485 14.4004 15.8631 14.95 15.6848C15.3064 15.5734 15.8894 15.2615 16.2087 15.0202C16.3647 14.9013 17.5195 13.7725 18.7783 12.5101C20.6868 10.5941 21.1027 10.1633 21.2809 9.88855C21.5446 9.48752 21.7562 9.01224 21.8825 8.53695C21.9753 8.19905 21.9827 8.11736 21.9827 7.43042C21.9827 6.74348 21.9753 6.6618 21.8825 6.3239C21.4555 4.73466 20.2524 3.53159 18.6743 3.11571C18.3698 3.03773 18.2101 3.01917 17.6792 3.00803C17.2262 3.0006 16.9662 3.01174 16.7546 3.04887Z" fill="#777777"/>
<path d="M10.884 9.1237C10.1822 9.21653 9.36159 9.547 8.8009 9.96659C8.62638 10.1003 7.58298 11.1177 6.22024 12.4841C3.73613 14.9794 3.673 15.0536 3.3611 15.774C3.11231 16.3421 3.02691 16.7357 3.00463 17.4004C2.98235 18.065 3.03805 18.4772 3.22371 19.0156C3.36481 19.4352 3.46878 19.6394 3.7287 20.0367C4.38222 21.0244 5.37364 21.6854 6.56557 21.9342C6.89233 22.001 7.03343 22.0084 7.5607 21.9936C8.25135 21.975 8.6598 21.8896 9.19821 21.6557C9.91486 21.3475 9.98541 21.2881 12.0648 19.2198C13.9771 17.315 13.9845 17.3075 13.9845 17.159C13.9845 16.8954 13.9065 16.8545 13.2938 16.81C12.6812 16.7654 12.3321 16.6986 11.7826 16.5241C11.5338 16.4424 11.3519 16.4015 11.2999 16.4164C11.2553 16.4312 10.6166 17.0402 9.88144 17.768C9.12024 18.5255 8.47414 19.1381 8.3776 19.1901C7.07799 19.929 5.48132 18.9525 5.56673 17.4783C5.58529 17.0996 5.68555 16.7988 5.86749 16.5352C5.93804 16.4275 6.98145 15.3618 8.1808 14.1662C10.4607 11.89 10.483 11.8714 10.9286 11.7378C11.2256 11.6487 11.5301 11.6338 11.8309 11.6969C12.1836 11.7712 12.4138 11.8863 12.7592 12.1648C13.1045 12.4433 13.3495 12.5398 13.706 12.5398C14.2259 12.5398 14.6529 12.2762 14.8608 11.8232C15.0093 11.4964 15.0131 11.0917 14.8682 10.7835C14.6752 10.3676 14.1107 9.88861 13.409 9.54329C12.6143 9.15712 11.7566 9.01601 10.884 9.1237Z" fill="#777777"/>
</svg>
