<svg width="24" height="24" viewBox="0 0 24 24" fill="none" xmlns="http://www.w3.org/2000/svg">
<path d="M7.67324 3.01392C7.43418 3.09361 7.19043 3.29517 7.07793 3.51548C6.96074 3.74517 6.95136 4.20455 7.05918 4.42017C7.10136 4.50455 7.67324 5.11392 8.33418 5.77486L9.53886 6.98423H5.64824C1.95918 6.98423 1.74824 6.98892 1.57012 7.0733C0.86699 7.39673 0.782615 8.40455 1.41543 8.84048L1.60762 8.97642L5.57324 8.99048L9.53418 8.99986L8.33418 10.2092C7.54668 10.9967 7.10605 11.4749 7.05449 11.5874C6.95605 11.8311 6.96543 12.2436 7.07324 12.4592C7.33105 12.9561 7.92636 13.1717 8.41386 12.942C8.54043 12.8811 9.30918 12.1452 10.7623 10.6827C12.7545 8.67642 12.9279 8.48892 12.9842 8.28736C13.0545 8.02486 13.0217 7.75298 12.8904 7.50923C12.7779 7.28892 8.65761 3.17798 8.44668 3.07017C8.24043 2.96705 7.89355 2.94361 7.67324 3.01392Z" fill="#777777"/>
<path d="M15.7968 11.0156C15.7078 11.0296 15.5812 11.0718 15.5156 11.1046C15.45 11.1374 14.4328 12.1265 13.2515 13.3078C11.3343 15.2203 11.1 15.4687 11.0343 15.6749C10.9453 15.9421 10.9687 16.2281 11.1046 16.4906C11.2406 16.7484 15.3562 20.8359 15.5718 20.9296C15.8062 21.0234 16.2 21.0187 16.4343 20.9109C16.7625 20.7609 17.0156 20.3624 17.0156 19.9874C17.0156 19.5937 16.9687 19.5328 15.689 18.2437L14.4656 17.0156H18.3421C22.5843 17.0156 22.4015 17.0249 22.7062 16.7437C23.1562 16.3171 23.0953 15.5109 22.5843 15.1593L22.3921 15.0234L18.4265 15.0093L14.4656 14.9999L15.6843 13.7671C16.6968 12.7499 16.9125 12.5062 16.9593 12.3468C17.0718 11.9578 17.0015 11.6203 16.7531 11.3437C16.5 11.0671 16.1578 10.9499 15.7968 11.0156Z" fill="#777777"/>
</svg>
